<svg width="16" height="16" viewBox="0 0 16 16" fill="none" xmlns="http://www.w3.org/2000/svg">
<path d="M1.5 4.9C1.5 3.0618 1.5 2.14205 2.21419 1.57135C2.92756 1 4.07725 1 6.375 1H9.625C11.9228 1 13.0724 1 13.7858 1.57135C14.5 2.14205 14.5 3.0618 14.5 4.9V10.1C14.5 11.9382 14.5 12.8579 13.7858 13.4286C13.0724 14 11.9228 14 9.625 14H6.375C4.07725 14 2.92756 14 2.21419 13.4286C1.5 12.8579 1.5 11.9382 1.5 10.1V4.9Z" stroke="black" stroke-width="1.5"/>
<path d="M13.4167 10.75C13.8309 10.75 14.1667 10.4142 14.1667 10C14.1667 9.58579 13.8309 9.25 13.4167 9.25V10.75ZM3.08984 10.0917L2.86103 9.37748L2.86015 9.37776L3.08984 10.0917ZM13.4167 9.25H4.42182V10.75H13.4167V9.25ZM4.42182 9.25C3.78127 9.25 3.2869 9.24105 2.86103 9.37748L3.31864 10.806C3.46545 10.7589 3.66818 10.75 4.42182 10.75V9.25ZM2.86015 9.37776C2.33157 9.54781 1.86729 9.87607 1.50558 10.3102L2.65802 11.2704C2.85447 11.0346 3.08551 10.881 3.31952 10.8057L2.86015 9.37776ZM1.50558 10.3102C1.14444 10.7437 0.894045 11.2717 0.767994 11.8367L2.23201 12.1633C2.31009 11.8133 2.46101 11.5068 2.65802 11.2704L1.50558 10.3102Z" fill="black"/>
<path d="M5 4H10" stroke="black" stroke-width="1.5" stroke-linecap="round"/>
<path d="M5 7H9" stroke="black" stroke-width="1.5" stroke-linecap="round"/>
</svg>
