<svg width="16" height="16" viewBox="0 0 16 16" fill="none" xmlns="http://www.w3.org/2000/svg">
<g clip-path="url(#clip0_796_1328)">
<path d="M12.6343 5.00003L14.3663 4.00003" stroke="black" stroke-width="1.5" stroke-linecap="round"/>
<path d="M12.6343 11L14.3663 12" stroke="black" stroke-width="1.5" stroke-linecap="round"/>
<path d="M12.5 8H14.5" stroke="black" stroke-width="1.5" stroke-linecap="round"/>
<path d="M1 10.5893V5.41007C1 4.90781 1.39201 4.50006 1.87501 4.50006H5.0128C5.1286 4.49965 5.24311 4.47579 5.34943 4.42992C5.45575 4.38405 5.55168 4.31713 5.63144 4.23318L8.25647 1.26864C8.80773 0.694632 9.75012 1.10151 9.75012 1.91265V14.0876C9.75012 14.9048 8.79635 15.3082 8.2486 14.7228L5.63231 11.7749C5.55233 11.6886 5.45543 11.6196 5.34764 11.5723C5.23986 11.5251 5.1235 11.5005 5.0058 11.5002H1.87501C1.39201 11.5002 1 11.0924 1 10.5893Z" stroke="black" stroke-width="1.5" stroke-linecap="round" stroke-linejoin="round"/>
</g>
<defs>
<clipPath id="clip0_796_1328">
<rect width="16" height="16" fill="white"/>
</clipPath>
</defs>
</svg>
