<svg width="16" height="16" viewBox="0 0 16 16" fill="none" xmlns="http://www.w3.org/2000/svg">
<path d="M7.15909 1.68182H2.36869C2.00569 1.68182 1.65756 1.82602 1.40088 2.0827C1.1442 2.33938 1 2.68751 1 3.05051V12.6313C1 12.9943 1.1442 13.3424 1.40088 13.5991C1.65756 13.8558 2.00569 14 2.36869 14H11.9495C12.3125 14 12.6606 13.8558 12.9173 13.5991C13.174 13.3424 13.3182 12.9943 13.3182 12.6313V7.84091" stroke="black" stroke-width="1.5" stroke-linecap="round" stroke-linejoin="round"/>
<path d="M11.5217 1.4252C11.794 1.15295 12.1632 1 12.5483 1C12.9333 1 13.3025 1.15295 13.5748 1.4252C13.847 1.69744 14 2.06669 14 2.45171C14 2.83673 13.847 3.20598 13.5748 3.47823L7.40679 9.64689C7.24429 9.80925 7.04354 9.9281 6.82304 9.99249L4.85692 10.5673C4.79804 10.5845 4.73562 10.5855 4.6762 10.5703C4.61677 10.5551 4.56254 10.5242 4.51916 10.4808C4.47579 10.4374 4.44487 10.3832 4.42965 10.3238C4.41443 10.2643 4.41546 10.2019 4.43263 10.143L5.00748 8.17692C5.07217 7.9566 5.19125 7.75609 5.35376 7.59386L11.5217 1.4252Z" stroke="black" stroke-width="1.5" stroke-linecap="round" stroke-linejoin="round"/>
<line x1="11.0303" y1="2.96967" x2="12.0303" y2="3.96967" stroke="black" stroke-width="1.5"/>
</svg>
