<svg width="16" height="16" viewBox="0 0 16 16" fill="none" xmlns="http://www.w3.org/2000/svg">
<g clip-path="url(#clip0_1104_1683)">
<path d="M8 14.5C9.38447 14.5 10.7378 14.1041 11.889 13.3624C13.0401 12.6207 13.9373 11.5665 14.4672 10.3331C14.997 9.09971 15.1356 7.74251 14.8655 6.43314C14.5954 5.12377 13.9287 3.92104 12.9497 2.97703C11.9708 2.03303 10.7235 1.39015 9.36563 1.1297C8.00776 0.869252 6.6003 1.00292 5.32122 1.51382C4.04213 2.02471 2.94888 2.88987 2.17971 3.9999C1.41054 5.10993 1 6.41498 1 7.75C1 8.866 1.28 9.91825 1.77778 10.8453L1 14.5L4.79011 13.75C5.75144 14.23 6.84344 14.5 8 14.5Z" stroke="white" stroke-width="1.5" stroke-linecap="round" stroke-linejoin="round"/>
<path d="M6.5 7.79999H9.5" stroke="white" stroke-width="1.5" stroke-linecap="round"/>
<path d="M6.5 10.6H9.5" stroke="white" stroke-width="1.5" stroke-linecap="round"/>
<path d="M6.5 5H9.5" stroke="white" stroke-width="1.5" stroke-linecap="round"/>
</g>
<defs>
<clipPath id="clip0_1104_1683">
<rect width="16" height="16" fill="white"/>
</clipPath>
</defs>
</svg>
