<svg width="16" height="16" viewBox="0 0 16 16" fill="none" xmlns="http://www.w3.org/2000/svg">
<g clip-path="url(#clip0_1182_992)">
<path d="M9.4 1.8883C9.4 1.3976 9.0024 1 8.5117 1H7.489C6.9976 1 6.6 1.3976 6.6 1.8883C6.6 2.2929 6.3228 2.6401 5.9455 2.7885C5.88577 2.81277 5.82673 2.8375 5.7684 2.8627C5.3967 3.0237 4.955 2.9747 4.668 2.6884C4.50134 2.52212 4.27553 2.42873 4.0401 2.42873C3.80467 2.42873 3.57886 2.52212 3.4122 2.6884L2.6884 3.4122C2.52212 3.57886 2.42873 3.80467 2.42873 4.0401C2.42873 4.27553 2.52212 4.50134 2.6884 4.668C2.9754 4.955 3.0244 5.396 2.862 5.7684C2.83649 5.82701 2.81199 5.88605 2.7885 5.9455C2.6401 6.3228 2.2929 6.6 1.8883 6.6C1.3976 6.6 1 6.9976 1 7.4883V8.5117C1 9.0024 1.3976 9.4 1.8883 9.4C2.2929 9.4 2.6401 9.6772 2.7885 10.0545C2.81277 10.1142 2.83727 10.1733 2.862 10.2316C3.0237 10.6033 2.9747 11.045 2.6884 11.332C2.52212 11.4987 2.42873 11.7245 2.42873 11.9599C2.42873 12.1953 2.52212 12.4211 2.6884 12.5878L3.4122 13.3116C3.57886 13.4779 3.80467 13.5713 4.0401 13.5713C4.27553 13.5713 4.50134 13.4779 4.668 13.3116C4.955 13.0246 5.396 12.9756 5.7684 13.1373C5.82673 13.163 5.88577 13.1877 5.9455 13.2115C6.3228 13.3599 6.6 13.7071 6.6 14.1117C6.6 14.6024 6.9976 15 7.4883 15H8.5117C9.0024 15 9.4 14.6024 9.4 14.1117C9.4 13.7071 9.6772 13.3599 10.0545 13.2108C10.1142 13.1875 10.1733 13.1632 10.2316 13.138C10.6033 12.9756 11.045 13.0253 11.3313 13.3116C11.498 13.4781 11.724 13.5716 11.9595 13.5716C12.1951 13.5716 12.4211 13.4781 12.5878 13.3116L13.3116 12.5878C13.4779 12.4211 13.5713 12.1953 13.5713 11.9599C13.5713 11.7245 13.4779 11.4987 13.3116 11.332C13.0246 11.045 12.9756 10.604 13.1373 10.2316C13.163 10.1733 13.1877 10.1142 13.2115 10.0545C13.3599 9.6772 13.7071 9.4 14.1117 9.4C14.6024 9.4 15 9.0024 15 8.5117V7.489C15 6.9983 14.6024 6.6007 14.1117 6.6007C13.7071 6.6007 13.3599 6.3235 13.2108 5.9462C13.1873 5.88675 13.1628 5.82771 13.1373 5.7691C12.9763 5.3974 13.0253 4.9557 13.3116 4.6687C13.4779 4.50204 13.5713 4.27623 13.5713 4.0408C13.5713 3.80537 13.4779 3.57956 13.3116 3.4129L12.5878 2.6891C12.4211 2.52282 12.1953 2.42943 11.9599 2.42943C11.7245 2.42943 11.4987 2.52282 11.332 2.6891C11.045 2.9761 10.604 3.0251 10.2316 2.8634C10.173 2.83766 10.114 2.81292 10.0545 2.7892C9.6772 2.6401 9.4 2.2922 9.4 1.8883Z" stroke="black" stroke-width="1.2"/>
<path d="M10.8002 8.00001C10.8002 8.74262 10.5052 9.45481 9.98009 9.97991C9.45499 10.505 8.7428 10.8 8.0002 10.8C7.25759 10.8 6.5454 10.505 6.0203 9.97991C5.49519 9.45481 5.2002 8.74262 5.2002 8.00001C5.2002 7.25741 5.49519 6.54521 6.0203 6.02011C6.5454 5.49501 7.25759 5.20001 8.0002 5.20001C8.7428 5.20001 9.45499 5.49501 9.98009 6.02011C10.5052 6.54521 10.8002 7.25741 10.8002 8.00001Z" stroke="black" stroke-width="1.2"/>
</g>
<defs>
<clipPath id="clip0_1182_992">
<rect width="16" height="16" fill="white"/>
</clipPath>
</defs>
</svg>
