<svg width="16" height="16" viewBox="0 0 16 16" fill="none" xmlns="http://www.w3.org/2000/svg">
<g clip-path="url(#clip0_796_1307)">
<path d="M8.66413 1.38914C8.59798 1.27111 8.50157 1.17284 8.38482 1.10445C8.26807 1.03605 8.13521 1 7.99991 1C7.8646 1 7.73174 1.03605 7.61499 1.10445C7.49825 1.17284 7.40183 1.27111 7.33568 1.38914C6.68465 2.56945 6.14887 3.80974 5.73578 5.09283C5.62767 5.42804 5.30722 5.66059 4.9401 5.67071C3.82727 5.69995 2.71805 5.81043 1.6213 6.00125C1.0193 6.10703 0.792961 6.79301 1.22074 7.21145C2.0504 8.02312 2.93671 8.77477 3.87299 9.46073C4.15843 9.66995 4.27588 10.0285 4.16699 10.3567C3.75133 11.6033 3.45445 12.8863 3.28031 14.1887C3.20254 14.7759 3.83099 15.1905 4.37699 14.9105C5.45971 14.3554 6.49504 13.7123 7.47257 12.9879C7.62559 12.8759 7.81028 12.8155 7.99991 12.8155C8.18953 12.8155 8.37422 12.8759 8.52724 12.9879C9.5046 13.7126 10.54 14.3556 11.6228 14.9105C12.1681 15.1905 12.7973 14.7759 12.7195 14.1887C12.5454 12.886 12.2485 11.6027 11.8328 10.3559C11.7239 10.0293 11.8406 9.66995 12.1268 9.46073C13.0631 8.77474 13.9494 8.02309 14.7791 7.21145C15.2069 6.79301 14.9813 6.10703 14.3785 6.00125C13.2819 5.80945 12.1726 5.69897 11.0597 5.67071C10.8837 5.66824 10.7127 5.61138 10.5702 5.50792C10.4278 5.40446 10.3208 5.25947 10.264 5.09283C9.85088 3.81002 9.3151 2.56921 8.66413 1.38914Z" stroke="black" stroke-width="1.5" stroke-linecap="round" stroke-linejoin="round"/>
<path d="M8 1L12.3301 8.5H3.66987L8 1Z" fill="black"/>
<path d="M6.33804 4.72256L14.8127 6.50578L9.03106 12.9535L6.33804 4.72256Z" fill="black"/>
<path d="M1.23902 6.84406L9.57811 4.50751L7.43207 12.8977L1.23902 6.84406Z" fill="black"/>
<path d="M4.11077 6.85191L10.4487 11.4143L3.32861 14.6219L4.11077 6.85191Z" fill="black"/>
<path d="M11.8336 6.78032L12.285 14.5765L5.30761 11.0694L11.8336 6.78032Z" fill="black"/>
</g>
<defs>
<clipPath id="clip0_796_1307">
<rect width="16" height="16" fill="white"/>
</clipPath>
</defs>
</svg>
