<svg width="16" height="16" viewBox="0 0 16 16" fill="none" xmlns="http://www.w3.org/2000/svg">
<rect x="1.75" y="1.75" width="12.5" height="12.5" rx="2.25" stroke="white" stroke-width="1.5"/>
<path d="M4.87207 11.6488C4.45215 11.6488 4.20801 11.3852 4.20801 10.9359V5.59903C4.20801 5.14981 4.44727 4.88614 4.86719 4.88614C5.28223 4.88614 5.52637 5.14981 5.52637 5.59903V10.9359C5.52637 11.3852 5.28711 11.6488 4.87207 11.6488ZM6.94238 10.7553V5.77969C6.94238 5.21329 7.23535 4.93497 7.82129 4.93497H9.37402C11.3223 4.93497 12.3525 6.08731 12.3525 8.26993C12.3525 10.4477 11.3223 11.6 9.37402 11.6H7.82129C7.23535 11.6 6.94238 11.3217 6.94238 10.7553ZM8.26074 10.5209H9.20801C10.4336 10.5209 11.0049 9.79825 11.0049 8.26993C11.0049 6.73184 10.4287 6.00919 9.20801 6.00919H8.26074V10.5209Z" fill="white"/>
</svg>
