<svg width="16" height="16" viewBox="0 0 16 16" fill="none" xmlns="http://www.w3.org/2000/svg">
<path d="M15.0378 8C15.0383 8.20893 14.9847 8.41444 14.8823 8.59654C14.7799 8.77864 14.6321 8.93113 14.4532 9.03918L3.37068 15.8189C3.18383 15.9333 2.96983 15.9957 2.75077 15.9998C2.53171 16.0038 2.31554 15.9494 2.12459 15.8419C1.93545 15.7362 1.77789 15.582 1.66812 15.3951C1.55834 15.2083 1.50032 14.9956 1.5 14.7789V1.22109C1.50032 1.0044 1.55834 0.791703 1.66812 0.604871C1.77789 0.41804 1.93545 0.263819 2.12459 0.158069C2.31554 0.0506496 2.53171 -0.00384561 2.75077 0.000211026C2.96983 0.00426766 3.18383 0.0667292 3.37068 0.181145L14.4532 6.96082C14.6321 7.06887 14.7799 7.22136 14.8823 7.40346C14.9847 7.58556 15.0383 7.79107 15.0378 8Z" fill="#1FB36E"/>
</svg>
