<svg width="60" height="52" viewBox="0 0 60 52" fill="none" xmlns="http://www.w3.org/2000/svg">
<circle cx="30" cy="24" r="9.25" stroke="white" stroke-width="1.5"/>
<path d="M39.8232 34.1768C40.2137 34.5673 40.8469 34.5673 41.2374 34.1768C41.6279 33.7862 41.6279 33.1531 41.2374 32.7626L39.8232 34.1768ZM35.8232 30.1768L39.8232 34.1768L41.2374 32.7626L37.2374 28.7626L35.8232 30.1768Z" fill="white"/>
<path d="M14.9561 45.6279C14.9561 45.335 15.1514 45.1299 15.415 45.1299C15.625 45.1299 15.7861 45.2275 15.9961 45.4912C16.3574 45.9697 16.8604 46.209 17.5049 46.209C18.3496 46.209 18.8477 45.8574 18.8477 45.2471C18.8477 44.749 18.5156 44.4365 17.7832 44.251L16.7285 43.9775C15.6152 43.7041 15.0586 43.1035 15.0586 42.1758C15.0586 40.9844 16.0059 40.2031 17.4365 40.2031C18.1885 40.2031 18.8574 40.418 19.2871 40.8086C19.5996 41.0918 19.7754 41.4189 19.7754 41.7314C19.7754 42.0049 19.5898 42.1904 19.3164 42.1904C19.1113 42.1904 18.96 42.1025 18.8379 41.9072C18.5742 41.4189 18.0811 41.1309 17.4561 41.1309C16.6895 41.1309 16.1914 41.5068 16.1914 42.0928C16.1914 42.542 16.5088 42.8643 17.1289 43.0205L18.1787 43.2842C19.3896 43.5869 19.9463 44.1631 19.9463 45.125C19.9463 46.3652 18.9746 47.1416 17.4463 47.1416C16.6162 47.1416 15.8838 46.9121 15.4541 46.5166C15.127 46.2188 14.9561 45.9111 14.9561 45.6279ZM20.8154 44.793V44.0605C20.8154 42.6836 21.7285 41.7412 23.0615 41.7412C24.3359 41.7412 25.2393 42.6592 25.2393 43.9287C25.2393 44.5 25.1025 44.6758 24.6729 44.6758H21.9189V44.9199C21.9189 45.7158 22.417 46.2236 23.2324 46.2236C23.6475 46.2236 23.9551 46.1064 24.2041 45.8818C24.458 45.667 24.5361 45.6133 24.707 45.6133C24.9414 45.6133 25.1025 45.7842 25.1025 46.0332C25.1025 46.2236 24.9854 46.4287 24.7852 46.5898C24.4531 46.9072 23.8477 47.0977 23.1689 47.0977C21.7139 47.0977 20.8154 46.2285 20.8154 44.793ZM21.9189 43.9189H24.1895V43.9043C24.1895 43.1182 23.7549 42.6104 23.0762 42.6104C22.3779 42.6104 21.9189 43.1328 21.9189 43.9043V43.9189ZM29.2432 46.3311C28.96 46.8096 28.4424 47.0732 27.8027 47.0732C26.7969 47.0732 26.1182 46.4385 26.1182 45.501C26.1182 44.5488 26.8115 43.9678 27.9639 43.9629H29.2529V43.5039C29.2529 42.9229 28.8965 42.6201 28.2373 42.6201C27.8271 42.6201 27.5439 42.7666 27.2461 43.0693C27.1143 43.1963 26.9873 43.2451 26.8018 43.2451C26.5625 43.2451 26.4062 43.084 26.4062 42.8496C26.4062 42.5518 26.6113 42.2588 27.0459 42.0244C27.3584 41.8535 27.7686 41.7607 28.3057 41.7607C29.6094 41.7607 30.3369 42.3857 30.3369 43.5088V46.4629C30.3369 46.834 30.1465 47.0488 29.8096 47.0488C29.5117 47.0488 29.3213 46.8682 29.2969 46.5605V46.3311H29.2432ZM27.207 45.4473C27.207 45.9258 27.583 46.248 28.1396 46.248C28.7695 46.248 29.2529 45.8184 29.2529 45.2617V44.7051H28.1152C27.5391 44.7051 27.207 44.9736 27.207 45.4473ZM32.7344 46.4482C32.7344 46.8291 32.5342 47.0488 32.1875 47.0488C31.8408 47.0488 31.6504 46.8291 31.6504 46.4482V42.3955C31.6504 42.0146 31.8506 41.7949 32.1924 41.7949C32.5146 41.7949 32.7002 41.9951 32.7148 42.3418V42.498H32.7539C32.9883 42.0098 33.3789 41.7607 33.8574 41.7607C34.0283 41.7607 34.1699 41.7998 34.2676 41.8779C34.3848 41.9561 34.4482 42.0879 34.4482 42.249C34.4482 42.4199 34.3896 42.542 34.2725 42.6201C34.1748 42.6885 34.0332 42.7178 33.8477 42.7227C33.1104 42.7324 32.7344 43.1328 32.7344 43.9434V46.4482ZM35.0098 44.8076V44.0068C35.0098 42.6543 35.8252 41.7412 37.251 41.7412C37.6953 41.7412 38.1836 41.8389 38.5791 42.083C38.9014 42.2881 39.1797 42.6055 39.1797 42.9375C39.1797 43.2012 39.0186 43.4062 38.7354 43.4062C38.4961 43.4062 38.374 43.2549 38.2568 43.123C38.0176 42.8154 37.7051 42.6543 37.29 42.6543C36.5088 42.6543 36.123 43.2305 36.123 44.0654V44.749C36.123 45.5889 36.4795 46.1895 37.2998 46.1895C37.6709 46.1895 38.0127 46.0576 38.2861 45.7109C38.3984 45.5938 38.5303 45.4326 38.7598 45.4326C38.999 45.4326 39.1943 45.5889 39.1943 45.8916C39.1943 46.2236 38.9307 46.5508 38.5547 46.7754C38.1543 47.0146 37.6953 47.0977 37.2559 47.0977C35.8447 47.0977 35.0098 46.2236 35.0098 44.8076ZM44.8242 46.4482C44.8242 46.8291 44.624 47.0488 44.2822 47.0488C43.9355 47.0488 43.7402 46.8291 43.7402 46.4482V43.8262C43.7402 43.0986 43.3594 42.6885 42.6953 42.6885C41.958 42.6885 41.4795 43.2402 41.4795 44.124V46.4482C41.4795 46.8291 41.2793 47.0488 40.9375 47.0488C40.5908 47.0488 40.3955 46.8291 40.3955 46.4482V40.5498C40.3955 40.1689 40.5957 39.9492 40.9375 39.9492C41.2793 39.9492 41.4795 40.1689 41.4795 40.5498V42.7666H41.5332C41.709 42.1709 42.3535 41.7607 43.1006 41.7607C44.1797 41.7607 44.8242 42.4199 44.8242 43.5186V46.4482Z" fill="white"/>
</svg>
