<svg width="16" height="16" viewBox="0 0 16 16" fill="none" xmlns="http://www.w3.org/2000/svg">
<path fill-rule="evenodd" clip-rule="evenodd" d="M16 8C16 12.4183 12.4183 16 8 16C3.58172 16 0 12.4183 0 8C0 3.58172 3.58172 0 8 0C12.4183 0 16 3.58172 16 8ZM8.67732 3.90735C8.50642 3.71203 8.25953 3.6 8 3.6C7.74047 3.6 7.49358 3.71203 7.32268 3.90735L3.82268 7.90735C3.49537 8.28142 3.53327 8.85001 3.90735 9.17732C4.28142 9.50463 4.85001 9.46673 5.17732 9.09265L7.1 6.8953V11.5C7.1 11.9971 7.50294 12.4 8 12.4C8.49706 12.4 8.9 11.9971 8.9 11.5V6.8953L10.8227 9.09265C11.15 9.46673 11.7186 9.50463 12.0927 9.17732C12.4667 8.85001 12.5046 8.28142 12.1773 7.90735L8.67732 3.90735Z" fill="#FFD261"/>
</svg>
