<svg width="16" height="16" viewBox="0 0 16 16" fill="none" xmlns="http://www.w3.org/2000/svg">
<g clip-path="url(#clip0_1187_1029)">
<g clip-path="url(#clip1_1187_1029)">
<path d="M1.5 4.11111H14.5M6.375 7.22222V11.8889M9.625 7.22222V11.8889M2.3125 4.11111L3.125 13.4444C3.125 13.857 3.2962 14.2527 3.60095 14.5444C3.9057 14.8361 4.31902 15 4.75 15H11.25C11.681 15 12.0943 14.8361 12.399 14.5444C12.7038 14.2527 12.875 13.857 12.875 13.4444L13.6875 4.11111M5.5625 4.11111V1.77778C5.5625 1.5715 5.6481 1.37367 5.80048 1.22781C5.95285 1.08194 6.15951 1 6.375 1H9.625C9.84049 1 10.0472 1.08194 10.1995 1.22781C10.3519 1.37367 10.4375 1.5715 10.4375 1.77778V4.11111" stroke="#C7C7CC" stroke-width="1.5" stroke-linecap="round" stroke-linejoin="round"/>
</g>
</g>
<defs>
<clipPath id="clip0_1187_1029">
<rect width="16" height="16" fill="white"/>
</clipPath>
<clipPath id="clip1_1187_1029">
<rect width="16" height="16" fill="white"/>
</clipPath>
</defs>
</svg>
