<svg width="60" height="52" viewBox="0 0 60 52" fill="none" xmlns="http://www.w3.org/2000/svg">
<g clip-path="url(#clip0_961_1068)">
<circle cx="30" cy="18" r="5.25" stroke="#8E8E93" stroke-width="1.5"/>
</g>
<path d="M39.25 30C39.25 30.9436 38.4656 31.9998 36.7357 32.8647C35.0506 33.7072 32.6702 34.25 30 34.25C27.3298 34.25 24.9494 33.7072 23.2643 32.8647C21.5344 31.9998 20.75 30.9436 20.75 30C20.75 29.0564 21.5344 28.0002 23.2643 27.1353C24.9494 26.2928 27.3298 25.75 30 25.75C32.6702 25.75 35.0506 26.2928 36.7357 27.1353C38.4656 28.0002 39.25 29.0564 39.25 30Z" stroke="#8E8E93" stroke-width="1.5"/>
<path d="M25.6641 44.6953C25.6641 46.165 24.624 47.1416 23.0469 47.1416C21.4014 47.1416 20.4297 46.1602 20.4297 44.6807V40.8818C20.4297 40.5107 20.6348 40.2861 20.9814 40.2861C21.3232 40.2861 21.5381 40.5107 21.5381 40.8818V44.6123C21.5381 45.5791 22.1191 46.1748 23.0469 46.1748C23.9697 46.1748 24.5557 45.5742 24.5557 44.6123V40.8818C24.5557 40.5107 24.7607 40.2861 25.1074 40.2861C25.4492 40.2861 25.6641 40.5107 25.6641 40.8818V44.6953ZM26.7578 45.96C26.7578 45.6963 26.9287 45.5254 27.1924 45.5254C27.3438 45.5254 27.4609 45.5938 27.6611 45.7842C28.0078 46.1113 28.374 46.2676 28.8428 46.2676C29.4336 46.2676 29.7998 46.0137 29.7998 45.5986C29.7998 45.2715 29.5557 45.0273 29.0918 44.9248L28.2031 44.7197C27.2705 44.5098 26.8311 44.0508 26.8311 43.3086C26.8311 42.3613 27.6123 41.7412 28.8281 41.7412C29.3311 41.7412 29.7998 41.8584 30.166 42.0781C30.5127 42.2783 30.7178 42.5615 30.7178 42.8398C30.7178 43.0889 30.5469 43.2451 30.2881 43.2451C30.1367 43.2451 30.0293 43.1963 29.8047 43.0059C29.4482 42.6836 29.165 42.5664 28.7744 42.5664C28.2178 42.5664 27.8809 42.8252 27.8809 43.2354C27.8809 43.5674 28.1006 43.7676 28.5791 43.8799L29.5166 44.0947C30.4297 44.3047 30.8545 44.7539 30.8545 45.5059C30.8545 46.4873 30.0684 47.0977 28.7842 47.0977C28.2422 47.0977 27.7344 46.9805 27.3535 46.7705C26.9727 46.5605 26.7578 46.2725 26.7578 45.96ZM31.7676 44.793V44.0605C31.7676 42.6836 32.6807 41.7412 34.0137 41.7412C35.2881 41.7412 36.1914 42.6592 36.1914 43.9287C36.1914 44.5 36.0547 44.6758 35.625 44.6758H32.8711V44.9199C32.8711 45.7158 33.3691 46.2236 34.1846 46.2236C34.5996 46.2236 34.9072 46.1064 35.1562 45.8818C35.4102 45.667 35.4883 45.6133 35.6592 45.6133C35.8936 45.6133 36.0547 45.7842 36.0547 46.0332C36.0547 46.2236 35.9375 46.4287 35.7373 46.5898C35.4053 46.9072 34.7998 47.0977 34.1211 47.0977C32.666 47.0977 31.7676 46.2285 31.7676 44.793ZM32.8711 43.9189H35.1416V43.9043C35.1416 43.1182 34.707 42.6104 34.0283 42.6104C33.3301 42.6104 32.8711 43.1328 32.8711 43.9043V43.9189ZM38.4326 46.4482C38.4326 46.8291 38.2324 47.0488 37.8857 47.0488C37.5391 47.0488 37.3486 46.8291 37.3486 46.4482V42.3955C37.3486 42.0146 37.5488 41.7949 37.8906 41.7949C38.2129 41.7949 38.3984 41.9951 38.4131 42.3418V42.498H38.4521C38.6865 42.0098 39.0771 41.7607 39.5557 41.7607C39.7266 41.7607 39.8682 41.7998 39.9658 41.8779C40.083 41.9561 40.1465 42.0879 40.1465 42.249C40.1465 42.4199 40.0879 42.542 39.9707 42.6201C39.873 42.6885 39.7314 42.7178 39.5459 42.7227C38.8086 42.7324 38.4326 43.1328 38.4326 43.9434V46.4482Z" fill="#8E8E93"/>
<defs>
<clipPath id="clip0_961_1068">
<rect width="24" height="24" fill="white" transform="translate(18 7)"/>
</clipPath>
</defs>
</svg>
