<svg width="60" height="52" viewBox="0 0 60 52" fill="none" xmlns="http://www.w3.org/2000/svg">
<path d="M31.4962 14.5837C31.397 14.4067 31.2523 14.2593 31.0772 14.1567C30.9021 14.0541 30.7028 14 30.4999 14C30.2969 14 30.0976 14.0541 29.9225 14.1567C29.7474 14.2593 29.6028 14.4067 29.5035 14.5837C28.527 16.3542 27.7233 18.2146 27.1037 20.1392C26.9415 20.6421 26.4608 20.9909 25.9102 21.0061C24.2409 21.0499 22.5771 21.2156 20.932 21.5019C20.0289 21.6605 19.6894 22.6895 20.3311 23.3172C21.5756 24.5347 22.9051 25.6622 24.3095 26.6911C24.7376 27.0049 24.9138 27.5427 24.7505 28.0351C24.127 29.9049 23.6817 31.8295 23.4205 33.7831C23.3038 34.6639 24.2465 35.2857 25.0655 34.8657C26.6896 34.0331 28.2426 33.0685 29.7089 31.9818C29.9384 31.8138 30.2154 31.7233 30.4999 31.7233C30.7843 31.7233 31.0613 31.8138 31.2909 31.9818C32.7569 33.0689 34.3099 34.0335 35.9342 34.8657C36.7521 35.2857 37.6959 34.6639 37.5792 33.7831C37.3181 31.8291 36.8728 29.9041 36.2492 28.0339C36.0859 27.5439 36.2609 27.0049 36.6902 26.6911C38.0946 25.6621 39.4241 24.5346 40.6686 23.3172C41.3103 22.6895 40.9719 21.6605 40.0678 21.5019C38.4228 21.2142 36.7589 21.0485 35.0896 21.0061C34.8255 21.0024 34.569 20.9171 34.3554 20.7619C34.1417 20.6067 33.9812 20.3892 33.8961 20.1392C33.2763 18.215 32.4727 16.3538 31.4962 14.5837Z" stroke="black" stroke-width="1.5" stroke-linecap="round" stroke-linejoin="round"/>
<path d="M8.03711 44.1338V43.1816C8.03711 41.3115 9.02344 40.2031 10.7373 40.2031C11.5674 40.2031 12.2461 40.457 12.7197 40.9355C13.0469 41.2627 13.252 41.6777 13.252 41.9707C13.252 42.2588 13.0615 42.4395 12.7832 42.4395C12.5684 42.4395 12.4268 42.3564 12.251 42.0977C11.8652 41.4629 11.416 41.1699 10.791 41.1699C9.73633 41.1699 9.14062 41.9121 9.14062 43.2158V44.1045C9.14062 45.4375 9.73145 46.1748 10.791 46.1748C11.4258 46.1748 11.9092 45.8867 12.2705 45.2666C12.4463 45.0127 12.5732 44.9199 12.7783 44.9199C13.0713 44.9199 13.252 45.1055 13.252 45.3887C13.252 45.7158 13.0225 46.1504 12.6562 46.4775C12.1924 46.9072 11.543 47.1416 10.7373 47.1416C9.01367 47.1416 8.03711 46.043 8.03711 44.1338ZM16.499 41.7412C17.8418 41.7412 18.8037 42.6006 18.8037 44.0654V44.7588C18.8037 46.248 17.8418 47.0977 16.499 47.0977C15.1514 47.0977 14.1895 46.248 14.1895 44.7588V44.0703C14.1895 42.6006 15.1514 41.7412 16.499 41.7412ZM16.499 42.6201C15.7617 42.6201 15.2979 43.2012 15.2979 44.1191V44.7197C15.2979 45.6523 15.7617 46.2236 16.499 46.2236C17.2412 46.2236 17.6904 45.6523 17.6904 44.7197V44.1191C17.6904 43.2012 17.2412 42.6201 16.499 42.6201ZM20.5371 47.0488C20.2148 47.0488 20 46.8486 20 46.4482V40.5498C20 40.1494 20.2148 39.9492 20.5371 39.9492C20.8643 39.9492 21.084 40.1494 21.084 40.5498V46.4482C21.084 46.8486 20.8643 47.0488 20.5371 47.0488ZM23.0664 47.0488C22.7441 47.0488 22.5293 46.8486 22.5293 46.4482V40.5498C22.5293 40.1494 22.7441 39.9492 23.0664 39.9492C23.3936 39.9492 23.6133 40.1494 23.6133 40.5498V46.4482C23.6133 46.8486 23.3936 47.0488 23.0664 47.0488ZM24.8145 44.793V44.0605C24.8145 42.6836 25.7275 41.7412 27.0605 41.7412C28.335 41.7412 29.2383 42.6592 29.2383 43.9287C29.2383 44.5 29.1016 44.6758 28.6719 44.6758H25.918V44.9199C25.918 45.7158 26.416 46.2236 27.2314 46.2236C27.6465 46.2236 27.9541 46.1064 28.2031 45.8818C28.457 45.667 28.5352 45.6133 28.7061 45.6133C28.9404 45.6133 29.1016 45.7842 29.1016 46.0332C29.1016 46.2236 28.9844 46.4287 28.7842 46.5898C28.4521 46.9072 27.8467 47.0977 27.168 47.0977C25.7129 47.0977 24.8145 46.2285 24.8145 44.793ZM25.918 43.9189H28.1885V43.9043C28.1885 43.1182 27.7539 42.6104 27.0752 42.6104C26.377 42.6104 25.918 43.1328 25.918 43.9043V43.9189ZM30.1904 44.8076V44.0068C30.1904 42.6543 31.0059 41.7412 32.4316 41.7412C32.876 41.7412 33.3643 41.8389 33.7598 42.083C34.082 42.2881 34.3604 42.6055 34.3604 42.9375C34.3604 43.2012 34.1992 43.4062 33.916 43.4062C33.6768 43.4062 33.5547 43.2549 33.4375 43.123C33.1982 42.8154 32.8857 42.6543 32.4707 42.6543C31.6895 42.6543 31.3037 43.2305 31.3037 44.0654V44.749C31.3037 45.5889 31.6602 46.1895 32.4805 46.1895C32.8516 46.1895 33.1934 46.0576 33.4668 45.7109C33.5791 45.5938 33.7109 45.4326 33.9404 45.4326C34.1797 45.4326 34.375 45.5889 34.375 45.8916C34.375 46.2236 34.1113 46.5508 33.7354 46.7754C33.335 47.0146 32.876 47.0977 32.4365 47.0977C31.0254 47.0977 30.1904 46.2236 30.1904 44.8076ZM36.0303 45.6279V42.7373H35.7178C35.4199 42.7373 35.2393 42.5713 35.2393 42.3027C35.2393 42.0293 35.415 41.8682 35.7178 41.8682H36.0498V41.1113C36.0498 40.7402 36.2402 40.5254 36.5771 40.5254C36.9141 40.5254 37.1094 40.7402 37.1094 41.1113V41.8682H37.7051C38.0078 41.8682 38.1787 42.0293 38.1787 42.3027C38.1787 42.5713 38.0029 42.7373 37.7051 42.7373H37.1191V45.5498C37.1191 46.0576 37.2461 46.2139 37.6758 46.2139C37.8125 46.2139 37.9053 46.1992 38.0127 46.1992C38.2178 46.1992 38.3643 46.3359 38.3643 46.5508C38.3643 46.7168 38.2861 46.8584 38.125 46.9512C37.9639 47.0439 37.7295 47.0928 37.4121 47.0928C36.4355 47.0928 36.0303 46.6875 36.0303 45.6279ZM39.2578 40.54C39.2578 40.1885 39.5361 39.9346 39.8975 39.9346C40.2734 39.9346 40.5469 40.1885 40.5469 40.54C40.5469 40.8965 40.2734 41.1553 39.8975 41.1553C39.5361 41.1553 39.2578 40.8965 39.2578 40.54ZM40.4443 46.4482C40.4443 46.8486 40.2295 47.0488 39.9023 47.0488C39.5752 47.0488 39.3604 46.8438 39.3604 46.4482V42.3955C39.3604 41.9951 39.5801 41.7949 39.9023 41.7949C40.2295 41.7949 40.4443 42 40.4443 42.3955V46.4482ZM43.96 41.7412C45.3027 41.7412 46.2646 42.6006 46.2646 44.0654V44.7588C46.2646 46.248 45.3027 47.0977 43.96 47.0977C42.6123 47.0977 41.6504 46.248 41.6504 44.7588V44.0703C41.6504 42.6006 42.6123 41.7412 43.96 41.7412ZM43.96 42.6201C43.2227 42.6201 42.7588 43.2012 42.7588 44.1191V44.7197C42.7588 45.6523 43.2227 46.2236 43.96 46.2236C44.7021 46.2236 45.1514 45.6523 45.1514 44.7197V44.1191C45.1514 43.2012 44.7021 42.6201 43.96 42.6201ZM51.8311 46.4531C51.8311 46.834 51.6309 47.0488 51.2891 47.0488C50.9424 47.0488 50.7422 46.8291 50.7422 46.4482V43.8164C50.7422 43.0889 50.3809 42.6885 49.7266 42.6885C48.9795 42.6885 48.5059 43.2305 48.5059 44.124V46.4482C48.5059 46.8291 48.3057 47.0488 47.9639 47.0488C47.6172 47.0488 47.4219 46.8291 47.4219 46.4482V42.3809C47.4219 42.0146 47.627 41.7949 47.959 41.7949C48.2861 41.7949 48.4766 41.9951 48.4863 42.3516V42.7666H48.54C48.75 42.1367 49.3213 41.7607 50.0928 41.7607C51.1963 41.7607 51.8311 42.4004 51.8311 43.5137V46.4531Z" fill="black"/>
</svg>
