<svg width="60" height="52" viewBox="0 0 60 52" fill="none" xmlns="http://www.w3.org/2000/svg">
<path d="M19.5312 24.5L29.6056 14.4256C29.7231 14.3081 29.8625 14.2149 30.0159 14.1513C30.1694 14.0877 30.3339 14.055 30.5 14.055C30.6661 14.055 30.8306 14.0877 30.9841 14.1513C31.1375 14.2149 31.2769 14.3081 31.3944 14.4256L41.4688 24.5M22.0625 21.9687V33.3593C22.0625 34.058 22.6295 34.625 23.3281 34.625H27.9688V29.1406C27.9688 28.442 28.5358 27.875 29.2344 27.875H31.7656C32.4642 27.875 33.0312 28.442 33.0312 29.1406V34.625H37.6719C38.3705 34.625 38.9375 34.058 38.9375 33.3593V21.9687M26.2812 34.625H35.5625" stroke="black" stroke-width="1.5" stroke-linecap="round" stroke-linejoin="round"/>
<path d="M29 22H32" stroke="black" stroke-width="1.5" stroke-linecap="round"/>
<path d="M22.3193 47.0488C21.9678 47.0488 21.7627 46.8242 21.7627 46.4434V44.0459H18.7109V46.4434C18.7109 46.8242 18.5059 47.0488 18.1592 47.0488C17.8076 47.0488 17.6025 46.8242 17.6025 46.4434V40.8916C17.6025 40.5107 17.8076 40.2861 18.1592 40.2861C18.5059 40.2861 18.7109 40.5107 18.7109 40.8916V43.1084H21.7627V40.8916C21.7627 40.5107 21.9678 40.2861 22.3193 40.2861C22.666 40.2861 22.8711 40.5107 22.8711 40.8916V46.4434C22.8711 46.8242 22.666 47.0488 22.3193 47.0488ZM26.4014 41.7412C27.7441 41.7412 28.7061 42.6006 28.7061 44.0654V44.7588C28.7061 46.248 27.7441 47.0977 26.4014 47.0977C25.0537 47.0977 24.0918 46.248 24.0918 44.7588V44.0703C24.0918 42.6006 25.0537 41.7412 26.4014 41.7412ZM26.4014 42.6201C25.6641 42.6201 25.2002 43.2012 25.2002 44.1191V44.7197C25.2002 45.6523 25.6641 46.2236 26.4014 46.2236C27.1436 46.2236 27.5928 45.6523 27.5928 44.7197V44.1191C27.5928 43.2012 27.1436 42.6201 26.4014 42.6201ZM37.1045 46.4482C37.1045 46.834 36.9043 47.0488 36.5625 47.0488C36.2207 47.0488 36.0254 46.834 36.0254 46.4482V43.6943C36.0254 43.0449 35.6592 42.6738 35.0439 42.6738C34.4434 42.6738 34.0137 43.1279 34.0137 43.7871V46.4482C34.0137 46.834 33.8232 47.0488 33.4863 47.0488C33.1445 47.0488 32.9541 46.834 32.9541 46.4482V43.7236C32.9541 43.0742 32.5684 42.6738 31.9629 42.6738C31.3623 42.6738 30.9473 43.1133 30.9473 43.7773V46.4482C30.9473 46.834 30.7471 47.0488 30.4053 47.0488C30.0586 47.0488 29.8633 46.834 29.8633 46.4482V42.3857C29.8633 42.0195 30.0684 41.7949 30.4004 41.7949C30.7227 41.7949 30.918 42.0098 30.9277 42.3662V42.6787H30.9814C31.167 42.1074 31.6895 41.7607 32.3877 41.7607C33.1104 41.7607 33.6426 42.127 33.8135 42.7324H33.8672C34.1016 42.1221 34.6777 41.7607 35.4248 41.7607C36.4844 41.7607 37.1045 42.3613 37.1045 43.3818V46.4482ZM38.252 44.793V44.0605C38.252 42.6836 39.165 41.7412 40.498 41.7412C41.7725 41.7412 42.6758 42.6592 42.6758 43.9287C42.6758 44.5 42.5391 44.6758 42.1094 44.6758H39.3555V44.9199C39.3555 45.7158 39.8535 46.2236 40.6689 46.2236C41.084 46.2236 41.3916 46.1064 41.6406 45.8818C41.8945 45.667 41.9727 45.6133 42.1436 45.6133C42.3779 45.6133 42.5391 45.7842 42.5391 46.0332C42.5391 46.2236 42.4219 46.4287 42.2217 46.5898C41.8896 46.9072 41.2842 47.0977 40.6055 47.0977C39.1504 47.0977 38.252 46.2285 38.252 44.793ZM39.3555 43.9189H41.626V43.9043C41.626 43.1182 41.1914 42.6104 40.5127 42.6104C39.8145 42.6104 39.3555 43.1328 39.3555 43.9043V43.9189Z" fill="black"/>
</svg>
