<svg width="50" height="50" viewBox="0 0 50 50" fill="none" xmlns="http://www.w3.org/2000/svg">
<path d="M36.4582 0.803896C36.8885 0.326842 37.4921 0.038998 38.1362 0.00367905C38.7803 -0.0316399 39.4121 0.188459 39.8928 0.615563C42.4457 2.87832 44.4878 5.65136 45.885 8.75274C47.2822 11.8541 48.003 15.2137 48 18.6111C48 30.9035 38.7471 41.0517 26.7772 42.5632L26.1083 42.6357V45.1709H33.4055C34.0255 45.1716 34.6218 45.4073 35.0726 45.8297C35.5234 46.2522 35.7947 46.8296 35.831 47.444C35.8674 48.0583 35.666 48.6633 35.2681 49.1352C34.8702 49.6071 34.3057 49.9104 33.6901 49.9831L33.4055 50H13.9462C13.3262 49.9993 12.7299 49.7637 12.2791 49.3412C11.8283 48.9187 11.557 48.3413 11.5206 47.727C11.4843 47.1126 11.6857 46.5077 12.0836 46.0357C12.4815 45.5638 13.046 45.2605 13.6616 45.1878L13.9462 45.1709H21.2434V42.6357C17.6598 42.2786 14.2008 41.136 11.1161 39.2904C8.03149 37.4448 5.39824 34.9422 3.40653 31.9634C3.04946 31.43 2.92048 30.7776 3.04798 30.1498C3.17548 29.522 3.54901 28.9701 4.08639 28.6157C4.62377 28.2612 5.28099 28.1332 5.91346 28.2598C6.54594 28.3863 7.10186 28.7571 7.45893 29.2906C9.16449 31.8421 11.4567 33.9545 14.1465 35.4537C16.8363 36.9528 19.8466 37.7957 22.9291 37.9128L23.7026 37.9273C27.6413 37.9219 31.4857 36.7301 34.7275 34.5095C37.9693 32.2889 40.456 29.1441 41.8588 25.4907C43.2616 21.8373 43.5145 17.8473 42.5841 14.0482C41.6537 10.2491 39.5838 6.81965 36.6479 4.21322C36.1673 3.78607 35.8774 3.18692 35.8418 2.54756C35.8062 1.9082 36.0279 1.28099 36.4582 0.803896ZM23.6758 1.70935C28.1917 1.70935 32.5225 3.49006 35.7157 6.65975C38.9088 9.82944 40.7027 14.1285 40.7027 18.6111C40.7027 23.0937 38.9088 27.3927 35.7157 30.5624C32.5225 33.7321 28.1917 35.5128 23.6758 35.5128C19.16 35.5128 14.8292 33.7321 11.636 30.5624C8.44284 27.3927 6.64894 23.0937 6.64894 18.6111C6.64894 14.1285 8.44284 9.82944 11.636 6.65975C14.8292 3.49006 19.16 1.70935 23.6758 1.70935ZM23.6758 6.53841C20.4503 6.53841 17.3568 7.81035 15.076 10.0744C12.7951 12.3385 11.5138 15.4092 11.5138 18.6111C11.5138 21.8129 12.7951 24.8837 15.076 27.1477C17.3568 29.4118 20.4503 30.6837 23.6758 30.6837C26.9014 30.6837 29.9949 29.4118 32.2757 27.1477C34.5566 24.8837 35.8379 21.8129 35.8379 18.6111C35.8379 15.4092 34.5566 12.3385 32.2757 10.0744C29.9949 7.81035 26.9014 6.53841 23.6758 6.53841Z" fill="white"/>
</svg>
