<svg width="18" height="18" viewBox="0 0 18 18" fill="none" xmlns="http://www.w3.org/2000/svg">
<path d="M14.9397 0.000417129C16.9421 0.000417129 17.9591 0.976569 17.9987 2.91177L18 3.03108V14.9698C18 16.9433 17.0238 17.9595 15.0611 17.9992L14.9401 18.0004H3.06987C1.07711 18.0004 0.0417158 17.0334 0.00125139 15.0899L0 14.9698V3.03066C0 1.04749 0.995342 0.0404643 2.94932 0.00125139L3.07029 0L14.9397 0.000417129ZM15 2H3C2 2 2 2 2 3V15.0003C2 15.9844 2 16 3 16H15C16 16 16 16.1095 16 15V3C16 2 16 2 15 2ZM5.66294 6.49725C5.88421 6.49725 6.09642 6.58515 6.25289 6.74162C6.40935 6.89808 6.49725 7.1103 6.49725 7.33157V13.1718C6.49725 13.3931 6.40935 13.6053 6.25289 13.7618C6.09642 13.9182 5.88421 14.0061 5.66294 14.0061H4.82862C4.60734 14.0061 4.39513 13.9182 4.23867 13.7618C4.0822 13.6053 3.9943 13.3931 3.9943 13.1718V7.33157C3.9943 7.1103 4.0822 6.89808 4.23867 6.74162C4.39513 6.58515 4.60734 6.49725 4.82862 6.49725H5.66294ZM9.41737 3.9943C9.63864 3.9943 9.85085 4.0822 10.0073 4.23867C10.1638 4.39513 10.2517 4.60734 10.2517 4.82862V13.1718C10.2517 13.3931 10.1638 13.6053 10.0073 13.7618C9.85085 13.9182 9.63864 14.0061 9.41737 14.0061H8.58305C8.36177 14.0061 8.14956 13.9182 7.9931 13.7618C7.83663 13.6053 7.74873 13.3931 7.74873 13.1718V4.82862C7.74873 4.60734 7.83663 4.39513 7.9931 4.23867C8.14956 4.0822 8.36177 3.9943 8.58305 3.9943H9.41737ZM13.1718 9.00021C13.3931 9.00021 13.6053 9.08811 13.7618 9.24457C13.9182 9.40104 14.0061 9.61325 14.0061 9.83453V13.1718C14.0061 13.3931 13.9182 13.6053 13.7618 13.7618C13.6053 13.9182 13.3931 14.0061 13.1718 14.0061H12.3375C12.1162 14.0061 11.904 13.9182 11.7475 13.7618C11.5911 13.6053 11.5032 13.3931 11.5032 13.1718V9.83453C11.5032 9.61325 11.5911 9.40104 11.7475 9.24457C11.904 9.08811 12.1162 9.00021 12.3375 9.00021H13.1718Z" fill="white"/>
</svg>
