<svg width="16" height="16" viewBox="0 0 16 16" fill="none" xmlns="http://www.w3.org/2000/svg">
<g clip-path="url(#clip0_1186_1020)">
<path fill-rule="evenodd" clip-rule="evenodd" d="M3.2 3.63636H12.8C13.0667 3.63636 13.3173 3.70182 13.5381 3.82073L8.8 7.45455C8.56921 7.63158 8.28849 7.72727 8 7.72727C7.71151 7.72727 7.4308 7.63158 7.2 7.45455L2.46187 3.82073C2.68267 3.70182 2.9344 3.63636 3.2 3.63636ZM1.60107 5.20509L1.6 5.27273V10.7273C1.6 11.1613 1.76857 11.5775 2.06863 11.8844C2.36869 12.1912 2.77565 12.3636 3.2 12.3636H12.8C13.2243 12.3636 13.6313 12.1912 13.9314 11.8844C14.2314 11.5775 14.4 11.1613 14.4 10.7273V5.27273L14.3989 5.20509L9.76 8.76364C9.25225 9.1531 8.63469 9.36364 8 9.36364C7.36531 9.36364 6.74775 9.1531 6.24 8.76364L1.60107 5.20509ZM0 5.27273C0 4.40475 0.337142 3.57232 0.937258 2.95856C1.53737 2.3448 2.35131 2 3.2 2H12.8C13.6487 2 14.4626 2.3448 15.0627 2.95856C15.6629 3.57232 16 4.40475 16 5.27273V10.7273C16 11.5953 15.6629 12.4277 15.0627 13.0414C14.4626 13.6552 13.6487 14 12.8 14H3.2C2.35131 14 1.53737 13.6552 0.937258 13.0414C0.337142 12.4277 0 11.5953 0 10.7273V5.27273Z" fill="white"/>
</g>
<defs>
<clipPath id="clip0_1186_1020">
<rect width="16" height="16" fill="white"/>
</clipPath>
</defs>
</svg>
