<svg width="31" height="31" viewBox="0 0 31 31" fill="none" xmlns="http://www.w3.org/2000/svg">
<g clip-path="url(#clip0_889_932)">
<g clip-path="url(#clip1_889_932)">
<path fill-rule="evenodd" clip-rule="evenodd" d="M16.6462 1.64626C16.6462 1.21904 16.4765 0.809319 16.1744 0.507231C15.8723 0.205142 15.4626 0.0354309 15.0354 0.0354309C14.6081 0.0354309 14.1984 0.205142 13.8963 0.507231C13.5942 0.809319 13.4245 1.21904 13.4245 1.64626V4.27297C11.1212 4.61929 8.98965 5.69502 7.34285 7.34221C5.69605 8.98939 4.62081 11.1212 4.27504 13.4246H1.64403C1.21681 13.4246 0.807091 13.5943 0.505003 13.8964C0.202915 14.1985 0.0332031 14.6082 0.0332031 15.0354C0.0332031 15.4626 0.202915 15.8724 0.505003 16.1745C0.807091 16.4765 1.21681 16.6463 1.64403 16.6463H4.27075C4.61706 18.9496 5.6928 21.0811 7.33998 22.7279C8.98717 24.3747 11.119 25.45 13.4224 25.7957V28.4246C13.4224 28.8518 13.5921 29.2615 13.8942 29.5636C14.1963 29.8657 14.606 30.0354 15.0332 30.0354C15.4604 30.0354 15.8701 29.8657 16.1722 29.5636C16.4743 29.2615 16.644 28.8518 16.644 28.4246V25.7979C18.9473 25.4516 21.0789 24.3758 22.7257 22.7287C24.3725 21.0815 25.4477 18.9496 25.7935 16.6463H28.4224C28.8496 16.6463 29.2593 16.4765 29.5614 16.1745C29.8635 15.8724 30.0332 15.4626 30.0332 15.0354C30.0332 14.6082 29.8635 14.1985 29.5614 13.8964C29.2593 13.5943 28.8496 13.4246 28.4224 13.4246H25.7957C25.4495 11.1216 24.374 8.99027 22.7273 7.3435C21.0805 5.69674 18.9492 4.62132 16.6462 4.27512V1.64626ZM22.6943 15.0225C22.6917 13.5089 22.2407 12.0299 21.3982 10.7723C20.5556 9.5148 19.3593 8.53513 17.9604 7.95704C16.5614 7.37895 15.0225 7.22837 13.538 7.5243C12.0535 7.82023 10.69 8.54941 9.61968 9.61976C8.54933 10.6901 7.82015 12.0536 7.52422 13.5381C7.22829 15.0226 7.37888 16.5615 7.95696 17.9604C8.53505 19.3594 9.51472 20.5557 10.7722 21.3982C12.0298 22.2408 13.5088 22.6918 15.0225 22.6944H15.0482C17.0751 22.691 19.0179 21.8843 20.451 20.4511C21.8842 19.018 22.6909 17.0751 22.6943 15.0483V15.0225ZM12.3936 15.0354C12.3936 14.3348 12.6719 13.6629 13.1674 13.1674C13.6628 12.672 14.3347 12.3937 15.0354 12.3937C15.736 12.3937 16.4079 12.672 16.9034 13.1674C17.3988 13.6629 17.6771 14.3348 17.6771 15.0354C17.6771 15.7361 17.3988 16.408 16.9034 16.9034C16.4079 17.3989 15.736 17.6772 15.0354 17.6772C14.3347 17.6772 13.6628 17.3989 13.1674 16.9034C12.6719 16.408 12.3936 15.7361 12.3936 15.0354Z" fill="black"/>
<circle cx="15" cy="15" r="4" fill="black"/>
</g>
</g>
<defs>
<clipPath id="clip0_889_932">
<rect width="31" height="31" fill="white"/>
</clipPath>
<clipPath id="clip1_889_932">
<rect width="31" height="31" fill="white"/>
</clipPath>
</defs>
</svg>
