<svg width="20" height="20" viewBox="0 0 20 20" fill="none" xmlns="http://www.w3.org/2000/svg">
<path d="M9.293 0.293C9.48053 0.105529 9.73484 0.000213623 10 0.000213623C10.2652 0.000213623 10.5195 0.105529 10.707 0.293L13.707 3.293C13.8892 3.4816 13.99 3.7342 13.9877 3.9964C13.9854 4.2586 13.8802 4.50941 13.6948 4.69482C13.5094 4.88023 13.2586 4.9854 12.9964 4.98767C12.7342 4.98995 12.4816 4.88916 12.293 4.707L11 3.414V13C11 13.2652 10.8946 13.5196 10.7071 13.7071C10.5196 13.8946 10.2652 14 10 14C9.73478 14 9.48043 13.8946 9.29289 13.7071C9.10536 13.5196 9 13.2652 9 13V3.414L7.707 4.707C7.5184 4.88916 7.2658 4.98995 7.0036 4.98767C6.7414 4.9854 6.49059 4.88023 6.30518 4.69482C6.11977 4.50941 6.0146 4.2586 6.01233 3.9964C6.01005 3.7342 6.11084 3.4816 6.293 3.293L9.293 0.293ZM2 9C2 8.46957 2.21071 7.96086 2.58579 7.58579C2.96086 7.21071 3.46957 7 4 7H6C6.26522 7 6.51957 7.10536 6.70711 7.29289C6.89464 7.48043 7 7.73478 7 8C7 8.26522 6.89464 8.51957 6.70711 8.70711C6.51957 8.89464 6.26522 9 6 9H4V18H16V9H14C13.7348 9 13.4804 8.89464 13.2929 8.70711C13.1054 8.51957 13 8.26522 13 8C13 7.73478 13.1054 7.48043 13.2929 7.29289C13.4804 7.10536 13.7348 7 14 7H16C16.5304 7 17.0391 7.21071 17.4142 7.58579C17.7893 7.96086 18 8.46957 18 9V18C18 18.5304 17.7893 19.0391 17.4142 19.4142C17.0391 19.7893 16.5304 20 16 20H4C3.46957 20 2.96086 19.7893 2.58579 19.4142C2.21071 19.0391 2 18.5304 2 18V9Z" fill="white"/>
</svg>
