<svg width="50" height="50" viewBox="0 0 50 50" fill="none" xmlns="http://www.w3.org/2000/svg">
<g clip-path="url(#clip0_988_984)">
<path d="M23.2791 3.34221C22.4511 3.68421 21.7109 4.42673 20.2282 5.90726C18.7455 7.39228 18.003 8.13255 17.6633 8.95832C17.4371 9.50438 17.3206 10.0897 17.3206 10.6807C17.3206 11.2718 17.4371 11.8571 17.6633 12.4031C18.003 13.2311 18.7432 13.9714 20.2282 15.4542C21.7086 16.937 22.4511 17.6795 23.2791 18.0192C24.3812 18.4755 25.6193 18.4755 26.7214 18.0192C27.5494 17.6795 28.2896 16.9392 29.7723 15.4542C31.255 13.9692 31.9952 13.2311 32.3372 12.4031C32.7934 11.301 32.7934 10.0627 32.3372 8.96056C31.9952 8.13255 31.2572 7.39229 29.7723 5.90951C28.2873 4.42673 27.5494 3.68421 26.7214 3.34221C25.6193 2.88593 24.3812 2.88593 23.2791 3.34221ZM8.95841 17.6615C8.1327 18.0035 7.39023 18.7438 5.90979 20.2265C4.42486 21.7116 3.68464 22.4518 3.34265 23.2776C3.11643 23.8237 3 24.4089 3 25C3 25.5911 3.11643 26.1763 3.34265 26.7224C3.68464 27.5504 4.42711 28.2907 5.90754 29.7735C7.39248 31.2562 8.1327 31.9965 8.95841 32.3385C9.50444 32.5647 10.0897 32.6812 10.6807 32.6812C11.2717 32.6812 11.857 32.5647 12.403 32.3385C13.231 31.9965 13.9712 31.2562 15.4539 29.7735C16.9366 28.2907 17.6768 27.5504 18.0188 26.7224C18.475 25.6202 18.475 24.382 18.0188 23.2798C17.6768 22.4518 16.9388 21.7093 15.4539 20.2265C13.969 18.7438 13.231 18.0035 12.403 17.6615C11.3009 17.2052 10.0605 17.2052 8.95841 17.6615ZM34.5466 20.2265C33.0639 21.7116 32.3237 22.4518 31.9817 23.2776C31.7555 23.8237 31.639 24.4089 31.639 25C31.639 25.5911 31.7555 26.1763 31.9817 26.7224C32.3237 27.5504 33.0639 28.2907 34.5466 29.7735C36.0293 31.2562 36.7717 31.9965 37.5975 32.3385C38.6995 32.7948 39.9377 32.7948 41.0398 32.3385C41.8678 31.9965 42.6102 31.2562 44.0929 29.7735C45.5756 28.2907 46.3136 27.5504 46.6578 26.7224C47.1141 25.6202 47.1141 24.382 46.6578 23.2798C46.3136 22.4518 45.5756 21.7093 44.0929 20.2265C42.608 18.7438 41.8678 18.0035 41.0421 17.6615C40.496 17.4353 39.9108 17.3188 39.3197 17.3188C38.7287 17.3188 38.1435 17.4353 37.5975 17.6615C36.7717 18.0035 36.0293 18.7438 34.5466 20.2265ZM23.2791 31.9808C22.4511 32.3228 21.7109 33.0653 20.2282 34.5458C18.7455 36.0308 18.003 36.7711 17.6633 37.5991C17.207 38.7013 17.207 39.9395 17.6633 41.0417C18.003 41.8697 18.7432 42.61 20.2282 44.0927C21.7086 45.5755 22.4511 46.318 23.2791 46.6578C24.3812 47.1141 25.6193 47.1141 26.7214 46.6578C27.5494 46.318 28.2896 45.5778 29.7723 44.0927C31.255 42.6077 31.9952 41.8697 32.3372 41.0417C32.7939 39.9392 32.7939 38.7016 32.3372 37.5991C31.9952 36.7711 31.2572 36.0286 29.7723 34.5481C28.2896 33.063 27.5494 32.3228 26.7214 31.9808C25.6193 31.5245 24.3812 31.5245 23.2791 31.9808Z" stroke="black" stroke-width="4.5" stroke-linecap="round" stroke-linejoin="round"/>
</g>
<defs>
<clipPath id="clip0_988_984">
<rect width="50" height="50" fill="white"/>
</clipPath>
</defs>
</svg>
