<svg width="50" height="50" viewBox="0 0 50 50" fill="none" xmlns="http://www.w3.org/2000/svg">
<path d="M25 27.5C24.337 27.5 23.7011 27.7634 23.2322 28.2322C22.7634 28.7011 22.5 29.337 22.5 30V37.5C22.5 38.163 22.7634 38.7989 23.2322 39.2678C23.7011 39.7366 24.337 40 25 40C25.663 40 26.2989 39.7366 26.7678 39.2678C27.2366 38.7989 27.5 38.163 27.5 37.5V30C27.5 29.337 27.2366 28.7011 26.7678 28.2322C26.2989 27.7634 25.663 27.5 25 27.5ZM37.5 17.5V12.5C37.5 9.18479 36.183 6.00537 33.8388 3.66117C31.4946 1.31696 28.3152 0 25 0C21.6848 0 18.5054 1.31696 16.1612 3.66117C13.817 6.00537 12.5 9.18479 12.5 12.5V17.5C10.5109 17.5 8.60322 18.2902 7.1967 19.6967C5.79018 21.1032 5 23.0109 5 25V42.5C5 44.4891 5.79018 46.3968 7.1967 47.8033C8.60322 49.2098 10.5109 50 12.5 50H37.5C39.4891 50 41.3968 49.2098 42.8033 47.8033C44.2098 46.3968 45 44.4891 45 42.5V25C45 23.0109 44.2098 21.1032 42.8033 19.6967C41.3968 18.2902 39.4891 17.5 37.5 17.5ZM17.5 12.5C17.5 10.5109 18.2902 8.60322 19.6967 7.1967C21.1032 5.79018 23.0109 5 25 5C26.9891 5 28.8968 5.79018 30.3033 7.1967C31.7098 8.60322 32.5 10.5109 32.5 12.5V17.5H17.5V12.5ZM40 42.5C40 43.163 39.7366 43.7989 39.2678 44.2678C38.7989 44.7366 38.163 45 37.5 45H12.5C11.837 45 11.2011 44.7366 10.7322 44.2678C10.2634 43.7989 10 43.163 10 42.5V25C10 24.337 10.2634 23.7011 10.7322 23.2322C11.2011 22.7634 11.837 22.5 12.5 22.5H37.5C38.163 22.5 38.7989 22.7634 39.2678 23.2322C39.7366 23.7011 40 24.337 40 25V42.5Z" fill="white"/>
</svg>
